<svg width="177" height="37" viewBox="0 0 177 37" fill="none" xmlns="http://www.w3.org/2000/svg">
<path d="M7.16138 1.875V36H0.130127V1.875H7.16138ZM20.7551 16.4531V21.9375H5.2395V16.4531H20.7551ZM22.3958 1.875V7.38281H5.2395V1.875H22.3958ZM33.177 10.6406V36H26.4036V10.6406H33.177ZM25.9817 4.03125C25.9817 3.04688 26.3254 2.23437 27.0129 1.59375C27.7004 0.953125 28.6223 0.632812 29.7786 0.632812C30.9192 0.632812 31.8333 0.953125 32.5208 1.59375C33.2239 2.23437 33.5754 3.04688 33.5754 4.03125C33.5754 5.01562 33.2239 5.82813 32.5208 6.46875C31.8333 7.10937 30.9192 7.42969 29.7786 7.42969C28.6223 7.42969 27.7004 7.10937 27.0129 6.46875C26.3254 5.82813 25.9817 5.01562 25.9817 4.03125ZM45.3645 16.0547V36H38.6145V10.6406H44.9426L45.3645 16.0547ZM44.3801 22.4297H42.552C42.552 20.5547 42.7942 18.8672 43.2786 17.3672C43.7629 15.8516 44.4426 14.5625 45.3176 13.5C46.1926 12.4219 47.2317 11.6016 48.4348 11.0391C49.6536 10.4609 51.0129 10.1719 52.5129 10.1719C53.7004 10.1719 54.7864 10.3438 55.7708 10.6875C56.7551 11.0312 57.5989 11.5781 58.302 12.3281C59.0208 13.0781 59.5676 14.0703 59.9426 15.3047C60.3333 16.5391 60.5286 18.0469 60.5286 19.8281V36H53.7317V19.8047C53.7317 18.6797 53.5754 17.8047 53.2629 17.1797C52.9504 16.5547 52.4895 16.1172 51.8801 15.8672C51.2864 15.6016 50.552 15.4688 49.677 15.4688C48.7708 15.4688 47.9817 15.6484 47.3098 16.0078C46.6536 16.3672 46.1067 16.8672 45.6692 17.5078C45.2473 18.1328 44.927 18.8672 44.7083 19.7109C44.4895 20.5547 44.3801 21.4609 44.3801 22.4297ZM80.6379 30.4688V0H87.4348V36H81.3176L80.6379 30.4688ZM64.6067 23.625V23.1328C64.6067 21.1953 64.8254 19.4375 65.2629 17.8594C65.7004 16.2656 66.3411 14.8984 67.1848 13.7578C68.0286 12.6172 69.0676 11.7344 70.302 11.1094C71.5364 10.4844 72.9426 10.1719 74.5208 10.1719C76.0051 10.1719 77.302 10.4844 78.4114 11.1094C79.5364 11.7344 80.4895 12.625 81.2708 13.7812C82.0676 14.9219 82.7083 16.2734 83.1926 17.8359C83.677 19.3828 84.0286 21.0781 84.2473 22.9219V24C84.0286 25.7656 83.677 27.4062 83.1926 28.9219C82.7083 30.4375 82.0676 31.7656 81.2708 32.9062C80.4895 34.0312 79.5364 34.9062 78.4114 35.5312C77.2864 36.1562 75.9739 36.4688 74.4739 36.4688C72.8958 36.4688 71.4895 36.1484 70.2551 35.5078C69.0364 34.8672 68.0051 33.9688 67.1614 32.8125C66.3333 31.6562 65.7004 30.2969 65.2629 28.7344C64.8254 27.1719 64.6067 25.4688 64.6067 23.625ZM71.3567 23.1328V23.625C71.3567 24.6719 71.4348 25.6484 71.5911 26.5547C71.7629 27.4609 72.0364 28.2656 72.4114 28.9688C72.802 29.6562 73.302 30.1953 73.9114 30.5859C74.5364 30.9609 75.2942 31.1484 76.1848 31.1484C77.3411 31.1484 78.2942 30.8906 79.0442 30.375C79.7942 29.8438 80.3645 29.1172 80.7551 28.1953C81.1614 27.2734 81.3958 26.2109 81.4583 25.0078V21.9375C81.4114 20.9531 81.2708 20.0703 81.0364 19.2891C80.8176 18.4922 80.4895 17.8125 80.052 17.25C79.6301 16.6875 79.0989 16.25 78.4583 15.9375C77.8333 15.625 77.0911 15.4688 76.2317 15.4688C75.3567 15.4688 74.6067 15.6719 73.9817 16.0781C73.3567 16.4688 72.8489 17.0078 72.4583 17.6953C72.0833 18.3828 71.802 19.1953 71.6145 20.1328C71.4426 21.0547 71.3567 22.0547 71.3567 23.1328Z" fill="#304098"/>
<path d="M115.888 15.7734V21.2578H98.0754V15.7734H115.888ZM100.161 1.875V36H93.1301V1.875H100.161ZM120.904 1.875V36H113.896V1.875H120.904ZM141.599 29.9297V10.6406H148.349V36H141.997L141.599 29.9297ZM142.349 24.7266L144.341 24.6797C144.341 26.3672 144.146 27.9375 143.755 29.3906C143.365 30.8281 142.779 32.0781 141.997 33.1406C141.216 34.1875 140.232 35.0078 139.044 35.6016C137.857 36.1797 136.458 36.4688 134.849 36.4688C133.615 36.4688 132.474 36.2969 131.427 35.9531C130.396 35.5938 129.505 35.0391 128.755 34.2891C128.021 33.5234 127.443 32.5469 127.021 31.3594C126.615 30.1562 126.411 28.7109 126.411 27.0234V10.6406H133.161V27.0703C133.161 27.8203 133.247 28.4531 133.419 28.9688C133.607 29.4844 133.865 29.9062 134.193 30.2344C134.521 30.5625 134.904 30.7969 135.341 30.9375C135.794 31.0781 136.294 31.1484 136.841 31.1484C138.232 31.1484 139.325 30.8672 140.122 30.3047C140.935 29.7422 141.505 28.9766 141.833 28.0078C142.177 27.0234 142.349 25.9297 142.349 24.7266ZM153.505 0H160.255V30.1875L159.575 36H153.505V0ZM176.31 23.0625V23.5547C176.31 25.4453 176.107 27.1797 175.7 28.7578C175.31 30.3359 174.7 31.7031 173.872 32.8594C173.044 34 172.013 34.8906 170.779 35.5312C169.56 36.1562 168.122 36.4688 166.466 36.4688C164.919 36.4688 163.575 36.1562 162.435 35.5312C161.31 34.9062 160.365 34.0234 159.599 32.8828C158.833 31.7422 158.216 30.4062 157.747 28.875C157.279 27.3438 156.927 25.6719 156.693 23.8594V22.7812C156.927 20.9688 157.279 19.2969 157.747 17.7656C158.216 16.2344 158.833 14.8984 159.599 13.7578C160.365 12.6172 161.31 11.7344 162.435 11.1094C163.56 10.4844 164.888 10.1719 166.419 10.1719C168.091 10.1719 169.544 10.4922 170.779 11.1328C172.029 11.7578 173.06 12.6484 173.872 13.8047C174.7 14.9453 175.31 16.3047 175.7 17.8828C176.107 19.4453 176.31 21.1719 176.31 23.0625ZM169.56 23.5547V23.0625C169.56 22.0312 169.482 21.0625 169.325 20.1562C169.185 19.2344 168.935 18.4297 168.575 17.7422C168.216 17.0391 167.724 16.4844 167.099 16.0781C166.49 15.6719 165.7 15.4688 164.732 15.4688C163.81 15.4688 163.029 15.625 162.388 15.9375C161.747 16.25 161.216 16.6875 160.794 17.25C160.388 17.8125 160.083 18.4844 159.88 19.2656C159.677 20.0312 159.552 20.875 159.505 21.7969V24.8672C159.552 26.1016 159.755 27.1953 160.115 28.1484C160.49 29.0859 161.052 29.8281 161.802 30.375C162.568 30.9062 163.56 31.1719 164.779 31.1719C165.732 31.1719 166.521 30.9844 167.146 30.6094C167.771 30.2344 168.255 29.7031 168.599 29.0156C168.958 28.3281 169.208 27.5234 169.349 26.6016C169.49 25.6641 169.56 24.6484 169.56 23.5547Z" fill="#70B6E5"/>
</svg>
